<?xml version="1.0" encoding="UTF-8"?>
<!DOCTYPE svg PUBLIC "-//W3C//DTD SVG 1.1//EN" "http://www.w3.org/Graphics/SVG/1.1/DTD/svg11.dtd">
<!-- Creator: CorelDRAW 2018 (64 Bit Versão de avaliação) -->
<svg xmlns="http://www.w3.org/2000/svg" xml:space="preserve" width="400mm" height="84.9mm" version="1.1" style="shape-rendering:geometricPrecision; text-rendering:geometricPrecision; image-rendering:optimizeQuality; fill-rule:evenodd; clip-rule:evenodd"
viewBox="0 0 40000 8490"
 xmlns:xlink="http://www.w3.org/1999/xlink">
 <defs>
  <style type="text/css">
   <![CDATA[
    .fil2 {fill:black}
    .fil3 {fill:#020202}
    .fil5 {fill:#7A4E01}
    .fil6 {fill:#818181}
    .fil0 {fill:#FAA002}
    .fil1 {fill:#FBA101}
    .fil4 {fill:#FD9F00}
   ]]>
  </style>
 </defs>
 <g id="Camada_x0020_1">
  <metadata id="CorelCorpID_0Corel-Layer"/>
  <g id="_2653104750480">
   <path class="fil0" d="M2709.94 6865.15c-38.39,111.52 -303.14,592.09 -372.13,683.32 -188.18,248.91 -614.29,80.34 -503.11,-269.6 43.77,-137.77 297.04,-578.12 372.41,-680.67 204.01,-277.6 611.71,-49.41 502.83,266.95zm-2709.94 -2589.12l0 -49.65c0.7,-11.13 1.88,-22.97 3.69,-35.82 9.76,-69.28 9.42,-134.52 9.51,-222.88 0.15,-130.18 32.96,-302.61 51.25,-413.4 23.27,-140.93 52.05,-260.21 82.99,-381.65 32.56,-127.89 75.13,-233.56 113.98,-350.67 98.42,-296.6 303.65,-675.08 484.88,-936.5 400.02,-577.02 883.34,-994.54 1507.3,-1321.96l321.51 -143.24c604.99,-213.06 954.4,-293.38 1594.88,-292.49 108.2,0.15 815.41,66.52 843.17,82.46 -36.39,38 -650.16,383.94 -746.5,438.72 -261.01,148.41 -502.67,293.12 -761.49,441.45 -256.12,146.8 -503.91,295.22 -761.78,441.15l-759.23 443.25c-205.42,153.7 -406.19,390.91 -476.84,725.94 -77.42,367.07 54.78,735.58 242.28,926.17 208.34,211.77 404.44,341.11 691.9,510.91 260.58,153.94 514.5,282.39 770.18,432.33 508.7,298.32 1007.19,591.43 1529.62,876.25 255.37,139.22 501.35,318.51 821.2,380.91 366.12,71.43 708.07,-100.55 902.53,-275.3 222.01,-199.52 338.44,-407.53 391.73,-808.59 83.71,-629.84 -29.36,-2638.81 16.15,-3535.63 44.38,18.64 46.69,13.79 85.83,40.68 77.1,52.95 123.71,96.13 183.12,172.12 237.23,303.52 368.61,409.9 590.97,816.78 32.64,59.72 57.37,100.43 86.74,159.26 187.7,376.12 205.79,507.57 312.75,862.57 19.42,64.48 31.05,118.69 42.66,189.66 10.8,66.03 28.27,136.83 37.2,195.12 89.25,582.15 42.73,1132.5 -108.26,1687.96 -173.61,638.71 -270.83,626.74 -408.79,1012.56 -31.4,87.85 -37.61,71.99 -98,134.34l-203.85 274.51c-78.53,116.42 -229.61,267.7 -329.17,367.88l-240.47 237.9c-89.59,71.67 -167.19,135.37 -259.81,204.92 -92.76,69.65 -238.49,156.32 -314.89,231.83l-26.31 28.35c-49.12,48.14 -832.41,345.24 -913.09,371.8 -416.5,137.11 -808.28,172.17 -1249.39,172.28 -646.59,0.16 -1355.02,-202.25 -1854.82,-482.65 -59.39,-33.32 -103.54,-47.86 -160.35,-85.7 -158.37,-105.47 -254.56,-150.9 -416.31,-280.76l-497.44 -445.66c-160.29,-160.19 -249.75,-283.79 -377.28,-456.43 -17.83,-24.14 -27.95,-36.52 -45.95,-63.4 -165.14,-246.6 -303.51,-500.14 -409.15,-779.87 -20.41,-54.02 -44.41,-106.26 -64.73,-167.62 -129.17,-390.15 -214.79,-767.84 -219.91,-1185.66 -0.72,-58.87 -11.23,-96.74 -14.21,-144.53zm1756.72 1345.59c-25.75,-323.55 223.33,-696.27 366.82,-869.83 252.52,-305.39 524.07,-242.65 886.45,-61.81 278.5,139 538.13,295.51 795.38,448.34 220.33,130.87 605.4,341.4 622.43,620.08 17.92,292.87 -151.45,662.36 -361.34,880.7 -486.8,506.44 -1136.48,-81.92 -1688.71,-401.6 -234.5,-135.75 -597.56,-321.13 -621.03,-615.88z"/>
   <path class="fil1" d="M6483.67 2068.69c14.2,-355.12 23.58,-796.27 -66.86,-1125.31 -87.8,-319.36 -316.94,-535.36 -661.66,-539.39 -414.13,-4.85 -891.07,351.75 -1254.97,560.34l-1930.94 1089.86c-222.69,128.15 -511.74,339.4 -618.39,584.01 -161.07,369.44 15.31,711.5 233.06,868.69 383.73,277.04 2750.18,1613.15 3061.73,1777.4 292.26,154.09 603.59,255.64 910.84,14.18 263.07,-206.75 298.31,-442.75 322.76,-879.39 43.71,-780.45 -27.13,-1562.34 4.43,-2350.39z"/>
   <path class="fil2" d="M26343.13 674.85l0 3621.25c0,226.71 135.82,409.96 328.09,409.96 126.19,0 225.14,-4.56 316.86,-120.55 65.44,-82.76 80.53,-130.28 79.68,-275.65l-0.09 -2145.52c41.74,30.58 149.72,272 182.27,337.07 61.95,123.85 115.77,231.44 177.73,355.31 60.85,121.65 113.03,236.9 177.43,355.56 149.7,275.87 499.74,268.94 655.05,21.1 21.37,-34.1 23.84,-45.72 39.67,-83.35l312.67 -630.35c29.58,-58.56 52.32,-116.04 83.95,-175.71 17.02,-32.1 26.65,-59.02 43.37,-93.3l50.34 -86.33 -0.31 2145.76c-0.7,129.23 26.35,198.19 86.03,269.3 211.33,251.8 652.49,116.82 652.49,-242.3l0 -3703.25c0,-462.97 -523.45,-477.3 -656.02,-259.49l-402.39 800.3c-87.97,147.8 -458.28,941.42 -516.07,1028.32 -11.95,17.96 2.15,9.83 -24.96,29.68 -15.17,-65.01 -481.2,-975.67 -524.05,-1061.32 -54.38,-108.74 -347.08,-715.74 -403.18,-785.83 -214.32,-267.76 -658.56,-180.85 -658.56,289.34z"/>
   <path class="fil2" d="M22200.96 3968.14l-533.15 0 0 -2992.66 533.15 0c107.3,0 178.84,62.31 236.12,119.25 66.72,66.34 105.64,158.11 105.64,263.36l0 2227.43c0,113.49 -39.17,196.83 -98.74,256.59 -59.62,59.78 -127.94,126.03 -243.02,126.03zm-1257.69 -3388.95l0 3771.58c0,186.75 143.61,355.29 328.09,355.29l970.61 0c382.71,0 823.78,-344.2 945.18,-681.34 50.11,-139.14 80.1,-273.41 80.1,-466.54l0 -2172.75c0,-193.47 -30.03,-327.06 -80.1,-466.54 -50.67,-141.19 -180.28,-302.85 -296.49,-400.53 -116.62,-98.03 -87.68,-88.85 -252.18,-171.55 -123.86,-62.26 -265.13,-109.25 -451.2,-109.25l-915.92 0c-164.63,0 -328.09,176.54 -328.09,341.63z"/>
   <path class="fil3" d="M6483.67 2068.69c-31.56,788.05 39.28,1569.94 -4.43,2350.39 -24.45,436.64 -59.69,672.64 -322.76,879.39 -307.25,241.46 -618.58,139.91 -910.84,-14.18 -311.55,-164.25 -2678,-1500.36 -3061.73,-1777.4 -217.75,-157.19 -394.13,-499.25 -233.06,-868.69 106.65,-244.61 395.7,-455.86 618.39,-584.01l1930.94 -1089.86c363.9,-208.59 840.84,-565.19 1254.97,-560.34 344.72,4.03 573.86,220.03 661.66,539.39 90.44,329.04 81.06,770.19 66.86,1125.31zm-1470.51 -1858.46c-36.39,38 -650.16,383.94 -746.5,438.72 -261.01,148.41 -502.67,293.12 -761.49,441.45 -256.12,146.8 -503.91,295.22 -761.78,441.15l-759.23 443.25c-205.42,153.7 -406.19,390.91 -476.84,725.94 -77.42,367.07 54.78,735.58 242.28,926.17 208.34,211.77 404.44,341.11 691.9,510.91 260.58,153.94 514.5,282.39 770.18,432.33 508.7,298.32 1007.19,591.43 1529.62,876.25 255.37,139.22 501.35,318.51 821.2,380.91 366.12,71.43 708.07,-100.55 902.53,-275.3 222.01,-199.52 338.44,-407.53 391.73,-808.59 83.71,-629.84 -29.36,-2638.81 16.15,-3535.63l-67.73 -338.88c-28.52,-113.47 -52.54,-204.79 -101.83,-308.18 -182,-381.83 -622.86,-593.04 -1058.61,-556.67 -275.56,22.99 -430.01,115.08 -631.58,206.17z"/>
   <path class="fil2" d="M18988.38 2055.02l218.73 860.9 -464.79 0 246.06 -860.9zm-1367.05 2241.08c0,147.95 -9.89,188.81 98.84,297.49 177.38,177.25 434.55,137.51 549.73,-31.79 53.95,-79.33 117.69,-321.04 147.03,-440.63l134 -480.99 847.57 0c1.49,67.05 124.25,524.17 150.38,628.59 65.68,262.62 105.58,437.29 423.78,437.29 189.04,0 365.41,-202.1 337.03,-404.12 -15.86,-112.91 -45.33,-206.04 -71.81,-311.95 -27.63,-110.49 -49.37,-195.89 -76.4,-306.25 -48.44,-197.69 -104.47,-402.04 -156.09,-609.22 -106.18,-426.17 -288.84,-1096.17 -382.78,-1516.83 -13.3,-59.56 -24.87,-95.11 -40.72,-150.6 -60.32,-211.12 -195.4,-922.47 -296.41,-1042.89 -97.19,-115.85 -300.15,-169.26 -438.66,-90.51 -25.19,14.33 -74.1,50.9 -94.49,69.54 -115.94,106.04 -217.53,585.31 -261.48,763.51l-144.98 524.66c-25.05,89.48 -47.29,172.93 -74.36,267.3l-507.84 1856.43c-25.14,100.79 -142.34,472.65 -142.34,540.97z"/>
   <path class="fil2" d="M12699.93 2055.02l27.34 0c0,81.11 117.51,514.57 144.8,634.17 19.59,85.84 46.58,125.6 46.58,226.73l-451.12 0c7.43,-89.19 230.66,-782.55 232.4,-860.9zm-1367.06 2282.08c0,221.65 200.61,368.96 300.76,368.96 337.84,0 375.65,-138.14 460.05,-428.36l168.79 -637.52 847.57 0c12.64,54.2 28.05,98.74 41.28,150.05 13.17,51.1 20.76,100.11 35.08,156.25 33.53,131.4 117.89,527.96 180.94,611.71 254.8,338.39 723.15,49.51 663.21,-265.48 -40.39,-212.21 -109.84,-412.29 -153.93,-612.56l-693.33 -2750.56c-30.13,-102.08 -52.41,-199.04 -78.86,-303.79 -33.74,-133.58 -27.17,-183.44 -113.57,-269.11 -150.53,-149.25 -358.82,-168.26 -513.49,-13.63 -91.49,91.47 -126.32,218.63 -156.72,348.94 -14.11,60.52 -20,82.59 -36.75,140.92 -108.41,377.9 -263.67,1022.46 -368.41,1339.88l-443.19 1606.74c-26.1,95.64 -139.43,491.97 -139.43,557.56z"/>
   <path class="fil2" d="M14668.49 1303.45l0 2336.73c0,539.97 531.45,1065.88 1079.97,1065.88 302.67,0 509.03,-33.11 765.76,-218.44l147.04 -126.31c27.73,-30.31 33.23,-44.03 61.37,-75.32 237.17,-263.84 411.81,-908.85 55.77,-1060.41 -158.07,-67.29 -309.17,-35.85 -418.72,69.02 -78.66,75.29 -99.41,148.67 -105.63,290.7 -7.67,175.22 -175.57,382.84 -396.23,382.84 -165.97,0 -261.99,-9.04 -369.44,-149.97 -72.37,-94.91 -109.02,-174.75 -109.02,-341.97l0 -2008.78c0,-157.95 32.42,-239.82 103.07,-334.26 225.16,-301.03 747.5,-147.02 771.17,211.96 6.76,102.6 10.17,196.3 92.51,290.13 189.04,215.43 632.7,145.71 632.7,-263.48 0,-274.4 -68.47,-442.26 -196.75,-636.91 -112.62,-170.9 -278.35,-296.6 -459.39,-388.03 -288.1,-145.53 -679.36,-142.61 -974.84,-17.8 -365.01,154.18 -679.34,569.19 -679.34,974.42z"/>
   <path class="fil2" d="M23896.1 606.52l0 3744.25c0,189.93 154.74,355.29 328.1,355.29l1244.01 0c278.22,0 451.22,-400.26 222.69,-618.89 -53.63,-51.3 -165.92,-119.03 -263.7,-119.03l-806.56 0 0 -1106.88c342.89,0 811.28,81.95 879.78,-323.74 18.63,-110.35 -13.22,-204.2 -76.3,-274.44 -64.23,-71.5 -136.49,-139.73 -242.98,-139.73l-560.5 0 0 -1147.87 792.9 0c423.15,0 527.82,-406.95 324.99,-611.83 -56.01,-56.56 -122.37,-126.09 -229.31,-126.09l-1257.68 0c-201.28,0 -355.44,170.07 -355.44,368.96z"/>
   <path class="fil2" d="M29897.48 606.52c0,149.84 362.9,714.4 455.72,897.3 40.77,80.38 82.65,139.07 123.03,218.64 40.78,80.38 82.66,139.07 123.03,218.65 60.94,120.1 349.11,561.54 351.85,673.17 12.32,502.08 -0.89,1188.87 -1.49,1709.64 -0.26,218.32 153.2,382.14 301.24,382.14 125.2,0 225.11,-2.24 327.18,-110.23 53.29,-56.42 94.67,-137.26 97.15,-244.52 11.51,-499.22 2.14,-1189.14 -1.12,-1709.26 -0.66,-104.29 15.69,-119.81 93.63,-248.04l609.9 -1098.47c45.73,-76.78 77.31,-142.03 123.05,-218.63 84.82,-142.08 212.96,-324.66 212.96,-497.72 0,-262.82 -340.33,-460.23 -590.28,-262.07 -86.29,68.41 -295.03,474.14 -357.37,585.66 -20.41,36.51 -31.62,66.2 -50.91,99.42 -21.67,37.29 -35.85,59.65 -58.53,105.48l-337.31 605.72c-51.12,-37.44 -607.9,-1067.46 -687.88,-1211.85 -83.97,-151.59 -156.37,-263.99 -378.43,-263.99 -48.43,0 -102.02,19.76 -141.23,36.46 -54.93,23.42 -63.96,37.43 -101.88,75.81 -40.93,41.42 -49.12,52.37 -69.69,107.98 -12.1,32.65 -42.62,114.5 -42.62,148.71z"/>
   <path class="fil4" d="M34926.26 340.74c-199.39,51.79 -202.57,209.99 -202.52,429.75l0 1899.46c0,318.63 -35.16,953.46 52.45,1217.27 94.59,284.86 347.93,548.63 618.82,652.86 743,285.88 1432.84,-265.48 1462.26,-940.45 17.87,-409.66 1.52,-857.47 1.52,-1271.31 0,-423.61 0,-847.23 0,-1270.86 0,-155.69 30.25,-481.16 -37.46,-593.84 -83.67,-139.26 -290.19,-187.75 -423.56,-55.47 -112.92,112 -77.95,360.28 -77.95,553.67l0.15 2542.02c-1.7,676.1 -810.65,728.67 -1014.7,251.42 -76.32,-178.49 -42.81,-968.73 -42.81,-1221.95l0.31 -1899.8c-1.94,-189.94 -130.55,-346.26 -336.51,-292.77z"/>
   <path class="fil4" d="M38706.73 2190.74c-3.4,1.86 -8.13,1.03 -10.2,5.59 -11.18,24.76 -426.5,23.41 -481.66,4.25l-3.41 -1328.59c50.51,-14.96 342.72,-17.36 422.31,-9.1l60.96 17.02c297.22,5.22 566.57,325.37 573.32,641.97 4.33,203.6 -71.88,343.8 -165.58,455.71 -64.74,77.31 -233.31,207.46 -395.74,213.15zm-488 556.52c83.24,-17.63 289.08,-5.02 386.87,-6.1 123.42,-1.36 239.39,-16.68 351.05,-49.21 578.46,-168.46 1004.67,-826.66 803.38,-1503.14 -110.76,-372.18 -428.64,-694.26 -794.93,-805.65 -232.02,-70.56 -501.35,-51.56 -755.95,-51.56 -189.97,0 -518.65,-54.26 -530.34,274.36 -18.48,519.29 -0.09,1075.91 -0.09,1599.38 0,532.94 0,1065.87 0,1598.81 0,203.73 -47.78,593.77 70.29,719.4 164.35,174.87 454.89,78.78 467.58,-172.1 26.25,-519.64 -31.79,-1088.67 2.14,-1604.19z"/>
   <path class="fil2" d="M34926.26 340.74c205.96,-53.49 334.57,102.83 336.51,292.77l-0.31 1899.8c0,253.22 -33.51,1043.46 42.81,1221.95 204.05,477.25 1013,424.68 1014.7,-251.42l-0.15 -2542.02c0,-193.39 -34.97,-441.67 77.95,-553.67 133.37,-132.28 339.89,-83.79 423.56,55.47 67.71,112.68 37.46,438.15 37.46,593.84 0,423.63 0,847.25 0,1270.86 0,413.84 16.35,861.65 -1.52,1271.31 -29.42,674.97 -719.26,1226.33 -1462.26,940.45 -270.89,-104.23 -524.23,-368 -618.82,-652.86 -87.61,-263.81 -52.45,-898.64 -52.45,-1217.27l0 -1899.46c-0.05,-219.76 3.13,-377.96 202.52,-429.75zm-394.47 320.45l0 2801.35c0,561.92 266.94,1003.6 719.69,1221.03 395.88,190.12 907.41,145.97 1256.8,-106.24 199.94,-144.33 318.3,-288.93 429.75,-513.31 63.73,-128.28 109.13,-326.31 109.13,-519.5l0 -2951.67c0,-104.61 -41.62,-203.71 -103.84,-278.81l-12.53 -14.81c-186.08,-217.05 -532.88,-214.87 -714.03,37.49 -105.19,146.54 -85.52,253.22 -85.52,488.44 0,292.12 19.39,2721.63 -11.12,2817.56 -69.61,218.91 -317.31,324.72 -543.82,169.55 -52.22,-35.77 -94.33,-111.72 -114.19,-172.81 -34.98,-107.61 -14.4,-1499.24 -14.4,-1680.09 0,-378.07 0,-756.14 0,-1134.21 0,-225.29 22.69,-340.53 -76,-484.3 -239.16,-348.47 -839.92,-237.03 -839.92,320.33z"/>
   <path class="fil3" d="M2156.61 5621.62c2.99,-253.34 115.98,-475.2 248.49,-602.24 180.53,-173.08 441.42,23 590.85,107.95 166.21,94.49 995.47,542.5 1019.99,646.79 45.41,193.19 -152.14,528.43 -237.55,604.58 -185.54,165.41 -445.75,-39.06 -585.77,-122.17 -179.37,-106.42 -348.73,-204.36 -524.82,-309.01 -94.73,-56.28 -458.91,-271.19 -511.19,-325.9zm-399.89 0c23.47,294.75 386.53,480.13 621.03,615.88 552.23,319.68 1201.91,908.04 1688.71,401.6 209.89,-218.34 379.26,-587.83 361.34,-880.7 -17.03,-278.68 -402.1,-489.21 -622.43,-620.08 -257.25,-152.83 -516.88,-309.34 -795.38,-448.34 -362.38,-180.84 -633.93,-243.58 -886.45,61.81 -143.49,173.56 -392.57,546.28 -366.82,869.83z"/>
   <path class="fil2" d="M38218.73 2747.26c-33.93,515.52 24.11,1084.55 -2.14,1604.19 -12.69,250.88 -303.23,346.97 -467.58,172.1 -118.07,-125.63 -70.29,-515.67 -70.29,-719.4 0,-532.94 0,-1065.87 0,-1598.81 0,-523.47 -18.39,-1080.09 0.09,-1599.38 11.69,-328.62 340.37,-274.36 530.34,-274.36 254.6,0 523.93,-19 755.95,51.56 366.29,111.39 684.17,433.47 794.93,805.65 201.29,676.48 -224.92,1334.68 -803.38,1503.14 -111.66,32.53 -227.63,47.85 -351.05,49.21 -97.79,1.08 -303.63,-11.53 -386.87,6.1zm1781.27 -1226.88l0 16.47 -37.98 316.23c-67.22,273.24 -173.5,461.23 -368.72,656.31 -378.49,378.23 -683.61,420.19 -1192.76,420.19l0 1475.85c0,67.4 -30.89,119.44 -54.21,164.44 -28.01,54.07 -48.79,70.43 -92.42,112.59 -35.44,34.24 -81.35,67.21 -131.72,86.98 -190.31,74.71 -371.43,20.63 -511.42,-121.15 -86.05,-87.14 -126.15,-198.03 -126.15,-365.85l0 -3621.25c0,-304.09 200.81,-519.28 451.12,-519.28l697.2 0c534.99,0 1061.19,376.32 1246.05,831.54 64.57,159.02 118.1,366.83 121.01,546.93z"/>
   <path class="fil0" d="M2156.61 5621.62c52.28,54.71 416.46,269.62 511.19,325.9 176.09,104.65 345.45,202.59 524.82,309.01 140.02,83.11 400.23,287.58 585.77,122.17 85.41,-76.15 282.96,-411.39 237.55,-604.58 -24.52,-104.29 -853.78,-552.3 -1019.99,-646.79 -149.43,-84.95 -410.32,-281.03 -590.85,-107.95 -132.51,127.04 -245.5,348.9 -248.49,602.24z"/>
   <path class="fil2" d="M32276.14 6578.18c0,-141.69 22.63,-136.65 -109.36,-136.65 -67.53,0 -41.01,166.75 -41.01,300.63l0 1065.88c83.65,19.48 66.73,19.48 150.37,0 0,-178.29 -19.16,-945.61 25.05,-1081.83 62.34,-192.06 331.08,-245.33 420.31,8.06 35.6,101.1 21.22,763.09 19.22,937.35 -1.83,158.33 6.84,169.9 150.6,136.42 0,-245.97 0.06,-491.94 0,-737.91 -0.07,-269.54 7.61,-505.61 259.73,-505.61 97.75,0 171.84,93.19 195.19,187.52 18.97,76.63 9.88,629.23 9.88,755.37 0,64.09 0.12,128 -0.77,192.07 -1.56,113.5 6.97,122.22 110.13,122.22 32,0 54.69,-22.67 54.69,-54.65l0 -819.92c0,-561.39 -348.68,-590.72 -541.36,-459.13 -68.98,47.11 -80.04,109.35 -128.5,144.84 -40.41,-173.38 -329.04,-336.56 -574.17,-54.66z"/>
   <path class="fil3" d="M2709.94 6865.15c108.88,-316.36 -298.82,-544.55 -502.83,-266.95 -75.37,102.55 -328.64,542.9 -372.41,680.67 -111.18,349.94 314.93,518.51 503.11,269.6 68.99,-91.23 333.74,-571.8 372.13,-683.32z"/>
   <path class="fil2" d="M24647.99 7439.08l0 -601.26c0,-372.28 492.13,-349.02 492.13,-27.33l0 642.26c0,322.89 -492.13,315.63 -492.13,-13.67zm-150.38 -669.59l0 696.92c0,240.5 202.71,417.46 470.2,347.23 102.41,-26.89 105.57,-70.25 172.31,-114.92 0,182.69 3.27,290.85 -73.75,404.56 -120.21,177.52 -336.37,60.26 -336.37,155.71 0,113.16 -17.94,95.66 164.05,95.66 277.81,0 410.12,-285.29 410.12,-560.27l0 -1298.19c0,-64.62 -66.38,-54.66 -109.37,-54.66 -63.12,0 -54.68,59.81 -54.68,122.99 -96.39,-110.85 -155.61,-136.65 -300.74,-136.65 -85.26,0 -127.13,17.89 -186.49,59.55 -82.66,58.01 -155.28,165.83 -155.28,282.07z"/>
   <path class="fil2" d="M38605.6 2014.03c-141.24,0 -205.06,19.72 -205.06,-41l0 -874.57c0,-59.52 57.93,-41 191.39,-41 438.12,0 650.55,498.25 352.48,816.96 -70.85,75.78 -195.02,139.61 -338.81,139.61zm101.13 176.71c162.43,-5.69 331,-135.84 395.74,-213.15 93.7,-111.91 169.91,-252.11 165.58,-455.71 -6.75,-316.6 -276.1,-636.75 -573.32,-641.97l-468.32 -3.03 -0.01 1317.3 480.33 -3.44z"/>
   <path class="fil2" d="M26315.78 7316.1c0,-339.9 -67.4,-751.58 259.75,-751.58 143.75,0 246.07,118.11 246.07,259.63l0 614.93c0,130.06 -104.64,259.64 -218.73,259.64 -238.5,0 -287.09,-137.3 -287.09,-382.62zm0 -778.92c0,-125.11 -7.23,-95.65 -136.7,-95.65 -34.89,149.72 -13.67,1584.48 -13.67,1858.46 0,55.78 42.86,40.99 150.37,40.99l0 -628.59c38.99,26.09 63.55,55.85 109.37,81.99 132.82,75.78 335.47,48.57 448.39,-71.07 58.35,-61.8 98.43,-166.33 98.43,-284.23l0 -614.93c0,-387.94 -362.99,-453.54 -538.08,-360.22 -46.34,24.7 -72.55,61.1 -118.11,73.25z"/>
   <path class="fil2" d="M20232.4 7698.72c-238.35,0 -246.08,-135.45 -246.08,-300.63 0,-268.6 296.16,-259.64 505.82,-259.64l0 341.63c0,109 -144.45,218.64 -259.74,218.64zm-369.1 -929.23c0,43.18 106.89,27.33 150.38,27.33 27.52,-330.72 478.46,-292.66 478.46,13.67l0 204.98c-203.18,0 -397.09,-21.7 -545.71,110.43l-52.16 57.19c-98.92,125.16 -132.31,526.92 120.63,623.72 129.63,49.62 304.98,43.68 420.49,-55.49 3.02,-2.59 11.48,-10.25 14.42,-12.92l42.33 -39.68c0,64.42 2.43,61.14 13.67,109.32 33.25,7.75 150.38,44 150.38,-40.99l0 -874.57c0,-667.82 -792.89,-536.12 -792.89,-122.99z"/>
   <path class="fil2" d="M28106.63 7698.72c-253.52,0 -246.07,-146.61 -246.07,-314.3 0,-266.15 337.42,-245.97 505.81,-245.97 0,208.81 35.78,385.48 -85.48,488.49 -42.73,36.3 -100.19,71.78 -174.26,71.78zm-369.1 -901.9l150.38 0c7.22,-324.26 478.46,-304.61 478.46,27.33l0 191.32c-355.7,0 -669.85,-17.65 -669.85,464.61 0,390.55 386.11,397.45 547.61,315.09 65.05,-33.18 69.54,-61.17 122.24,-96.45 0,108.3 -1.74,122.98 82.02,122.98 41.98,0 82.03,-12.65 82.03,-54.65l0 -860.9c0,-126.41 -34.39,-260.57 -91.94,-331.73 -43.66,-54.01 -46.83,-58.49 -107.07,-97.95 -133.92,-87.74 -374.48,-57.73 -495.39,63.52 -59.32,59.48 -117.57,166.79 -98.49,256.83z"/>
   <path class="fil2" d="M18947.36 6796.82c0,-310.26 492.15,-313.39 492.15,13.67l0 245.97 -492.15 0 0 -259.64zm0 690.71c-27.65,-30.44 -18.33,-250.06 -7.03,-307.3l635.88 -0.79c17.33,-27.3 14.5,-76.12 14.18,-108.81 -2.25,-229.86 48.51,-538.39 -273.11,-629.92 -157.01,-44.68 -324.65,7.25 -408.16,85.57 -94.92,89.01 -126.83,210.59 -125.88,393.44 1.8,349.29 -65.84,690.57 171.62,853.5 98.78,67.78 296.46,86.77 421.72,26.58 130.72,-62.8 177.84,-153.87 213.31,-306.05 -35.14,-16.85 -83.32,-27.34 -136.71,-27.34 -26.79,50.6 -38.41,110.93 -77.94,154.4 -112.7,123.94 -378.87,122.8 -427.88,-133.28z"/>
   <path class="fil2" d="M30389.61 7384.42c0,-204.51 -31.05,-582.43 51.32,-713.94 122.06,-194.88 454.49,-117.2 454.49,153.67l0 614.93c0,130.06 -104.64,259.64 -218.73,259.64 -93.78,0 -159.93,1.47 -231.26,-96.78 -43.96,-60.57 -55.82,-131.5 -55.82,-217.52zm-150.37 -546.6l0 587.6c0,564.95 806.56,518.75 806.56,40.99l0 -669.59c0,-481.57 -806.56,-521.24 -806.56,41z"/>
   <path class="fil2" d="M21886.53 6564.52c0,-68.67 -1.53,-70.88 -13.67,-122.99 -161.77,0 -136.73,-36.56 -136.7,232.31l0 1134.2c185.13,43.12 150.37,5.44 150.37,-314.29 0,-144.65 -16.14,-658.36 19.46,-759.48 77.34,-219.72 355.57,-234.9 442.42,-16.51 56.02,140.91 -28.42,838.49 30.26,1090.28 33.26,7.75 150.37,44 150.37,-40.99l0 -915.57c0,-209.09 -99.6,-423.61 -341.76,-423.61 -205.92,0 -191.16,63.29 -300.75,136.65z"/>
   <path class="fil2" d="M23554.34 6578.18c0,-141.69 22.62,-136.65 -109.36,-136.65 -57.64,0 -42.49,61.67 -41.49,122.51l0.48 1244c83.64,19.48 66.73,19.48 150.37,0 0,-167.13 -18.63,-957.33 25.18,-1081.7 14.57,-41.33 45.37,-85.91 78.41,-112.93 99.01,-80.97 297.99,-74.49 359.92,102.72 50.47,144.42 28.63,905.53 28.63,1091.91 83.64,19.48 66.73,19.48 150.37,0 0,-286.97 -0.16,-573.94 0,-860.91 0.16,-251.95 -27.56,-519.26 -355.42,-519.26 -195.7,0 -248.88,122.33 -287.09,150.31z"/>
   <path class="fil2" d="M17812.72 7808.04c132.4,30.84 598.1,13.66 765.55,13.66 76.28,0 76.28,-150.31 0,-150.31l-615.18 0 0 -1708.14c0,-55.79 -42.85,-40.99 -150.37,-40.99l0 1885.78z"/>
   <path class="fil2" d="M29596.71 6236.55l0 204.98c-177.14,0 -150.37,-13.23 -150.37,122.99l150.37 13.66 0 1229.86c83.65,19.48 66.75,19.48 150.39,0l0 -1229.86c194.88,0 259.74,24.24 259.74,-81.99 0,-79.83 -124.23,-54.66 -259.74,-54.66 0,-108.98 -13.77,-297.15 66.51,-370.8 103.31,-94.79 193.23,46.61 193.23,-134.81 0,-88.06 -235.56,-31.69 -318.63,50.47 -48.85,48.31 -91.5,157.01 -91.5,250.16z"/>
   <path class="fil2" d="M28885.85 6113.56l0 327.97 -150.37 13.66c0,130.02 5.66,122.99 150.37,122.99l0 942.89c0,262.45 214.62,329.31 396.45,286.97 0,-185.2 -8.92,-108.44 -142.74,-144.29 -79.6,-21.32 -103.33,-102.72 -103.33,-197.34l0 -888.23c119.11,0 146.29,9.58 246.07,-13.66 0,-145.4 41.08,-122.99 -246.07,-122.99l0 -327.97c-49.87,-11.6 -85.65,-25.11 -150.38,0z"/>
   <path class="fil3" d="M1380.72 8286.32c0,184.45 69.06,194.06 154.21,202.26 121.52,11.7 175.87,-51.56 221.02,-127.82 54.22,-91.58 226.28,-379.46 226.28,-470.72 0,-123.99 -93.87,-191.32 -218.74,-191.32 -111.45,0 -184.7,165.97 -227.63,250.73 -46.98,92.74 -155.14,219.49 -155.14,336.87z"/>
   <path class="fil2" d="M27272.73 7808.04c83.65,19.48 66.73,19.48 150.38,0l0 -1885.78c-183.66,0 -150.72,-15.81 -150.39,191.3l0.01 1694.48z"/>
   <path class="fil2" d="M31360.22 6455.19l-0.72 1244.25c-1.69,139.45 28.57,137.13 151.1,108.6 0,-190.51 -22.72,-890.92 36.45,-1029.44 124.07,-290.47 299.05,-115.46 348.9,-183.24 2.24,-3.05 85.68,-153.83 -57.27,-153.83 -98.65,0 -164.68,-4.78 -241.88,72.5 -14.9,14.93 -35.56,48.68 -44.58,64.77l-41.62 67.7c0,-102.09 41.5,-265.76 -150.38,-191.31z"/>
   <path class="fil2" d="M20970.61 7808.04c83.65,19.48 66.73,19.48 150.37,0 0,-173.13 -16.74,-877.93 25.06,-1013.5 59.63,-193.36 182.39,-213.02 344.04,-175.36 10.49,-21.85 32.9,-80.31 33.19,-116 0.66,-84.68 -206.26,-94.7 -317.41,9.52 -21.68,20.32 -29.28,29.21 -43.4,52.28 -6.97,11.38 -11.29,22.37 -19.13,35.53 -17.1,28.67 -4.61,11.94 -22.35,32.33 0,-185.95 31.9,-191.31 -109.36,-191.31 -67.53,0 -41.01,166.75 -41.01,300.63l0 1065.88z"/>
   <path class="fil2" d="M22870.82 6496.19l0 1270.86c0,69.1 164.03,82.01 164.03,0l0 -1270.86c0,-77.11 -164.03,-77.11 -164.03,0z"/>
   <path class="fil2" d="M22816.13 6031.58c0,204.38 273.41,204.38 273.41,0 0,-165.08 -273.41,-165.08 -273.41,0z"/>
   <path class="fil5" d="M38706.73 2190.74l-480.33 3.44 0.01 -1317.3 468.32 3.03 -60.96 -17.02c-79.59,-8.26 -371.8,-5.86 -422.31,9.1l3.41 1328.59c55.16,19.16 470.48,20.51 481.66,-4.25 2.07,-4.56 6.8,-3.73 10.2,-5.59z"/>
   <path class="fil6" d="M18947.36 7487.53l0 -294.42 478.48 0c56.03,0.07 114.14,9.31 150.37,-13.67l-635.88 0.79c-11.3,57.24 -20.62,276.86 7.03,307.3z"/>
  </g>
 </g>
</svg>
