<?xml version="1.0" encoding="UTF-8"?>
<!DOCTYPE svg PUBLIC "-//W3C//DTD SVG 1.1//EN" "http://www.w3.org/Graphics/SVG/1.1/DTD/svg11.dtd">
<!-- Creator: CorelDRAW 2018 (64 Bit Versão de avaliação) -->
<svg xmlns="http://www.w3.org/2000/svg" xml:space="preserve" width="26.458mm" height="26.458mm" version="1.1" style="shape-rendering:geometricPrecision; text-rendering:geometricPrecision; image-rendering:optimizeQuality; fill-rule:evenodd; clip-rule:evenodd"
viewBox="0 0 2645.8 2645.8"
 xmlns:xlink="http://www.w3.org/1999/xlink">
 <defs>
  <style type="text/css">
   <![CDATA[
    .fil0 {fill:#020202}
    .fil1 {fill:#FAA002}
   ]]>
  </style>
 </defs>
 <g id="Camada_x0020_1">
  <metadata id="CorelCorpID_0Corel-Layer"/>
  <path class="fil0" d="M868.31 2139.44c-12.3,34.76 -97.13,184.52 -119.24,212.95 -60.29,77.57 -196.83,25.04 -161.2,-84.02 14.02,-42.93 95.17,-180.16 119.32,-212.12 65.37,-86.51 196,-15.4 161.12,83.19zm-868.31 -806.87l0 -15.47c0.22,-3.47 0.6,-7.16 1.18,-11.16 3.13,-21.6 3.02,-41.93 3.05,-69.47 0.04,-40.56 10.56,-94.3 16.42,-128.82 7.45,-43.92 16.68,-81.1 26.59,-118.94 10.43,-39.86 24.07,-72.79 36.52,-109.29 31.54,-92.43 97.3,-210.38 155.37,-291.85 128.17,-179.82 283.03,-309.93 482.96,-411.97l103.02 -44.64c193.85,-66.4 305.8,-91.43 511.02,-91.15 34.67,0.04 261.27,20.73 270.17,25.7 -11.66,11.84 -208.32,119.65 -239.19,136.72 -83.63,46.25 -161.07,91.35 -244,137.57 -82.06,45.75 -161.46,92 -244.08,137.48l-243.27 138.13c-65.82,47.91 -130.15,121.83 -152.79,226.24 -24.81,114.39 17.55,229.23 77.63,288.63 66.75,66 129.59,106.3 221.7,159.22 83.49,47.97 164.85,88 246.78,134.73 162.99,92.97 322.71,184.31 490.11,273.07 81.82,43.39 160.64,99.26 263.13,118.71 117.31,22.26 226.87,-31.34 289.18,-85.79 71.14,-62.18 108.44,-127.01 125.52,-251.99 26.82,-196.28 -9.41,-822.36 5.17,-1101.85 14.23,5.81 14.96,4.3 27.51,12.68 24.7,16.5 39.63,29.96 58.67,53.64 76.01,94.59 118.11,127.74 189.36,254.54 10.46,18.61 18.38,31.3 27.79,49.64 60.14,117.21 65.94,158.17 100.21,268.81 6.22,20.09 9.95,36.98 13.67,59.1 3.46,20.58 9.06,42.64 11.92,60.81 28.6,181.42 13.69,352.93 -34.69,526.03 -55.63,199.05 -86.78,195.32 -130.98,315.56 -10.06,27.37 -12.05,22.43 -31.4,41.86l-65.32 85.55c-25.16,36.28 -73.57,83.43 -105.47,114.65l-77.05 74.14c-28.71,22.33 -53.57,42.18 -83.25,63.86 -29.72,21.7 -76.42,48.71 -100.9,72.24l-8.43 8.84c-15.73,15 -266.72,107.59 -292.57,115.87 -133.45,42.73 -258.98,53.65 -400.32,53.69 -207.18,0.05 -434.17,-63.03 -594.32,-150.42 -19.03,-10.38 -33.17,-14.91 -51.37,-26.7 -50.75,-32.87 -81.57,-47.03 -133.4,-87.5l-159.39 -138.88c-51.36,-49.93 -80.02,-88.45 -120.88,-142.25 -5.72,-7.52 -8.96,-11.38 -14.73,-19.75 -52.91,-76.85 -97.25,-155.87 -131.09,-243.04 -6.54,-16.84 -14.23,-33.12 -20.74,-52.24 -41.39,-121.59 -68.83,-239.29 -70.47,-369.5 -0.23,-18.35 -3.6,-30.15 -4.55,-45.04zm562.88 419.34c-8.25,-100.83 71.56,-216.99 117.54,-271.08 80.91,-95.17 167.92,-75.61 284.03,-19.26 89.24,43.32 172.43,92.1 254.85,139.72 70.6,40.79 193.98,106.4 199.44,193.25 5.74,91.27 -48.53,206.41 -115.78,274.46 -155.98,157.82 -364.15,-25.53 -541.09,-125.16 -75.14,-42.3 -191.47,-100.08 -198.99,-191.93z"/>
  <path class="fil0" d="M2077.47 644.68c4.55,-110.67 7.56,-248.15 -21.42,-350.69 -28.13,-99.53 -101.55,-166.84 -212,-168.1 -132.7,-1.51 -285.52,109.62 -402.12,174.62l-618.7 339.65c-71.36,39.93 -163.97,105.77 -198.15,182 -51.61,115.13 4.91,221.73 74.68,270.72 122.95,86.33 881.2,502.72 981.03,553.9 93.65,48.02 193.4,79.67 291.85,4.42 84.29,-64.43 95.58,-137.98 103.42,-274.05 14,-243.22 -8.7,-486.89 1.41,-732.47z"/>
  <path class="fil1" d="M2077.47 644.68c-10.11,245.58 12.59,489.25 -1.41,732.47 -7.84,136.07 -19.13,209.62 -103.42,274.05 -98.45,75.25 -198.2,43.6 -291.85,-4.42 -99.83,-51.18 -858.08,-467.57 -981.03,-553.9 -69.77,-48.99 -126.29,-155.59 -74.68,-270.72 34.18,-76.23 126.79,-142.07 198.15,-182l618.7 -339.65c116.6,-65 269.42,-176.13 402.12,-174.62 110.45,1.26 183.87,68.57 212,168.1 28.98,102.54 25.97,240.02 21.42,350.69zm-471.17 -579.17c-11.66,11.84 -208.32,119.65 -239.19,136.72 -83.63,46.25 -161.07,91.35 -244,137.57 -82.06,45.75 -161.46,92 -244.08,137.48l-243.27 138.13c-65.82,47.91 -130.15,121.83 -152.79,226.24 -24.81,114.39 17.55,229.23 77.63,288.63 66.75,66 129.59,106.3 221.7,159.22 83.49,47.97 164.85,88 246.78,134.73 162.99,92.97 322.71,184.31 490.11,273.07 81.82,43.39 160.64,99.26 263.13,118.71 117.31,22.26 226.87,-31.34 289.18,-85.79 71.14,-62.18 108.44,-127.01 125.52,-251.99 26.82,-196.28 -9.41,-822.36 5.17,-1101.85l-21.7 -105.6c-9.14,-35.37 -16.83,-63.82 -32.62,-96.04 -58.32,-119 -199.58,-184.82 -339.2,-173.48 -88.3,7.16 -137.78,35.86 -202.37,64.25z"/>
  <path class="fil1" d="M691.01 1751.91c0.96,-78.95 37.16,-148.09 79.62,-187.68 57.85,-53.94 141.44,7.16 189.32,33.64 53.26,29.44 318.97,169.06 326.82,201.56 14.55,60.21 -48.75,164.68 -76.11,188.42 -59.45,51.54 -142.83,-12.18 -187.69,-38.08 -57.48,-33.16 -111.74,-63.68 -168.16,-96.3 -30.36,-17.54 -147.05,-84.51 -163.8,-101.56zm-128.13 0c7.52,91.85 123.85,149.63 198.99,191.93 176.94,99.63 385.11,282.98 541.09,125.16 67.25,-68.05 121.52,-183.19 115.78,-274.46 -5.46,-86.85 -128.84,-152.46 -199.44,-193.25 -82.42,-47.62 -165.61,-96.4 -254.85,-139.72 -116.11,-56.35 -203.12,-75.91 -284.03,19.26 -45.98,54.09 -125.79,170.25 -117.54,271.08z"/>
  <path class="fil0" d="M691.01 1751.91c16.75,17.05 133.44,84.02 163.8,101.56 56.42,32.62 110.68,63.14 168.16,96.3 44.86,25.9 128.24,89.62 187.69,38.08 27.36,-23.74 90.66,-128.21 76.11,-188.42 -7.85,-32.5 -273.56,-172.12 -326.82,-201.56 -47.88,-26.48 -131.47,-87.58 -189.32,-33.64 -42.46,39.59 -78.66,108.73 -79.62,187.68z"/>
  <path class="fil1" d="M868.31 2139.44c34.88,-98.59 -95.75,-169.7 -161.12,-83.19 -24.15,31.96 -105.3,169.19 -119.32,212.12 -35.63,109.06 100.91,161.59 161.2,84.02 22.11,-28.43 106.94,-178.19 119.24,-212.95z"/>
  <path class="fil1" d="M442.4 2582.33c0,57.49 22.13,60.48 49.42,63.04 38.93,3.64 56.35,-16.07 70.81,-39.84 17.38,-28.54 72.51,-118.25 72.51,-146.69 0,-38.64 -30.08,-59.63 -70.09,-59.63 -35.71,0 -59.18,51.73 -72.93,78.14 -15.06,28.9 -49.72,68.41 -49.72,104.98z"/>
 </g>
</svg>
